<?xml version="1.0" standalone="no"?>
<!DOCTYPE svg PUBLIC "-//W3C//DTD SVG 20010904//EN"
 "http://www.w3.org/TR/2001/REC-SVG-20010904/DTD/svg10.dtd">
<svg version="1.0" xmlns="http://www.w3.org/2000/svg"
 width="511.000000pt" height="511.000000pt" viewBox="0 0 511.000000 511.000000"
 preserveAspectRatio="xMidYMid meet">
<metadata>
Created by potrace 1.11, written by Peter Selinger 2001-2013
</metadata>
<g transform="translate(0.000000,511.000000) scale(0.100000,-0.100000)"
fill="#000000" stroke="none">
<path d="M2359 5106 c-2 -2 -38 -6 -79 -10 -262 -21 -571 -111 -845 -246 -182
-89 -262 -138 -425 -259 -102 -77 -316 -277 -396 -371 -248 -292 -431 -639
-527 -1000 -67 -250 -86 -414 -83 -700 4 -315 37 -508 133 -795 50 -148 169
-399 249 -525 143 -225 379 -489 574 -643 307 -243 706 -433 1050 -501 244
-48 330 -56 585 -51 253 4 391 21 595 74 955 247 1677 1010 1874 1981 51 250
59 600 20 875 -37 263 -149 599 -274 825 -68 121 -82 145 -137 226 -111 165
-310 389 -463 519 -377 320 -853 527 -1356 589 -97 12 -485 21 -495 12z m376
-1610 c326 -69 590 -288 709 -589 81 -205 86 -469 13 -672 -104 -289 -338
-508 -643 -601 -82 -26 -102 -28 -259 -28 -156 1 -177 3 -259 28 -362 110
-618 394 -681 755 -90 514 237 993 756 1106 64 14 300 14 364 1z"/>
</g>
</svg>
